<?xml version="1.0" encoding="UTF-8"?>
<svg width="236px" height="205px" viewBox="0 0 236 205" version="1.1" xmlns="http://www.w3.org/2000/svg" xmlns:xlink="http://www.w3.org/1999/xlink">
    <title>illustration</title>
    <g id="Symbols" stroke="none" stroke-width="1" fill="none" fill-rule="evenodd">
        <g id="1440/scp/bit-dev-overview-empty-1440px" transform="translate(-602.000000, -313.000000)">
            <g id="illustration" transform="translate(602.000000, 313.000000)">
                <g id="Group" transform="translate(31.400000, 32.199999)">
                    <g id="card" transform="translate(48.299999, 79.099999) rotate(-6.000000) translate(-48.299999, -79.099999) ">
                        <rect id="Rectangle" stroke="#6C707C" stroke-width="0.979999967" fill="#FFFFFF" fill-rule="nonzero" x="0.489999983" y="0.489999983" width="95.6199984" height="157.219997" rx="4.89999983"></rect>
                        <path d="M86.7957346,6.12739928 C87.8091771,6.12739928 88.7266771,6.53817801 89.3908164,7.20231735 C90.0549558,7.8664567 90.4657345,8.78395667 90.4657345,9.79739915 L90.4657345,9.79739915 L90.4657345,82.5233732 L6.13426386,82.5233732 L6.13426386,9.79739915 C6.13426386,8.78395667 6.54504259,7.8664567 7.20918193,7.20231735 C7.87332128,6.53817801 8.79082125,6.12739928 9.80426373,6.12739928 L9.80426373,6.12739928 Z" id="Rectangle" stroke="#EDEDED" stroke-width="0.5" fill="#FFFFFF" fill-rule="nonzero"></path>
                        <ellipse id="Oval" fill="#6C707C" fill-rule="nonzero" cx="35.3055832" cy="43.3458197" rx="1.96142129" ry="2.693808"></ellipse>
                        <ellipse id="Oval" fill="#6C707C" fill-rule="nonzero" cx="59.8233492" cy="43.3458197" rx="1.96142129" ry="2.693808"></ellipse>
                        <path d="M31.8730959,37.4589703 C32.3523319,37.6233245 32.8721691,37.7133121 33.4152973,37.7133121 C35.8133522,37.7133121 37.7573598,35.9590445 37.7573598,33.7950459" id="Path" stroke="#6C707C" stroke-width="0.734999975"></path>
                        <path d="M58.3522833,34.7746124 C58.3522833,36.6681112 60.372441,38.2030953 62.8644319,38.2030953 C63.5285325,38.2030953 64.159124,38.0940822 64.7269025,37.898322" id="Path" stroke="#6C707C" stroke-width="0.734999975"></path>
                        <path d="M44.1319789,50.9374604 C44.9022178,52.3976103 46.386442,53.3863768 48.0910083,53.3863768 C49.7436425,53.3863768 51.1891561,52.456941 51.9776641,51.06959" id="Path" stroke="#6C707C" stroke-width="0.734999975"></path>
                        <rect id="Rectangle" fill="#EDEDED" fill-rule="nonzero" x="5.88426386" y="90.6099056" width="50.9969534" height="5.87739928" rx="0.489999983"></rect>
                        <rect id="Rectangle" fill="#EDEDED" fill-rule="nonzero" x="5.88426386" y="100.405571" width="21.5756342" height="5.87739928" rx="0.489999983"></rect>
                        <rect id="Rectangle" fill="#EDEDED" fill-rule="nonzero" x="5.88426386" y="114.119503" width="83.3604047" height="5.87739928" rx="0.489999983"></rect>
                        <rect id="Rectangle" fill="#EDEDED" fill-rule="nonzero" x="5.88426386" y="123.915168" width="83.3604047" height="5.87739928" rx="0.489999983"></rect>
                        <rect id="Rectangle" fill="#EDEDED" fill-rule="nonzero" x="5.88426386" y="141.547366" width="10.7878171" height="5.87739928" rx="0.489999983"></rect>
                        <rect id="Rectangle" fill="#EDEDED" fill-rule="nonzero" x="20.5949235" y="141.547366" width="10.7878171" height="5.87739928" rx="0.489999983"></rect>
                        <rect id="Rectangle" fill="#EDEDED" fill-rule="nonzero" x="35.3055832" y="141.547366" width="10.7878171" height="5.87739928" rx="0.489999983"></rect>
                    </g>
                </g>
                <g id="Group" transform="translate(130.799998, 41.999999)">
                    <g id="card" transform="translate(48.299999, 79.099999) rotate(6.000000) translate(-48.299999, -79.099999) ">
                        <rect id="Rectangle" stroke="#6C707C" stroke-width="0.979999967" fill="#FFFFFF" fill-rule="nonzero" x="0.489999983" y="0.489999983" width="95.6199984" height="157.219997" rx="4.89999983"></rect>
                        <path d="M86.7957346,6.12739928 C87.8091771,6.12739928 88.7266771,6.53817801 89.3908164,7.20231735 C90.0549558,7.8664567 90.4657345,8.78395667 90.4657345,9.79739915 L90.4657345,9.79739915 L90.4657345,82.5233732 L6.13426386,82.5233732 L6.13426386,9.79739915 C6.13426386,8.78395667 6.54504259,7.8664567 7.20918193,7.20231735 C7.87332128,6.53817801 8.79082125,6.12739928 9.80426373,6.12739928 L9.80426373,6.12739928 Z" id="Rectangle" stroke="#EDEDED" stroke-width="0.5" fill="#FFFFFF" fill-rule="nonzero"></path>
                        <ellipse id="Oval" fill="#6C707C" fill-rule="nonzero" cx="35.3055832" cy="43.3458197" rx="1.96142129" ry="2.693808"></ellipse>
                        <ellipse id="Oval" fill="#6C707C" fill-rule="nonzero" cx="59.8233492" cy="43.3458197" rx="1.96142129" ry="2.693808"></ellipse>
                        <path d="M31.8730959,37.4589703 C32.3523319,37.6233245 32.8721691,37.7133121 33.4152973,37.7133121 C35.8133522,37.7133121 37.7573598,35.9590445 37.7573598,33.7950459" id="Path" stroke="#6C707C" stroke-width="0.734999975"></path>
                        <path d="M58.3522833,34.7746124 C58.3522833,36.6681112 60.372441,38.2030953 62.8644319,38.2030953 C63.5285325,38.2030953 64.159124,38.0940822 64.7269025,37.898322" id="Path" stroke="#6C707C" stroke-width="0.734999975"></path>
                        <path d="M44.1319789,50.9374604 C44.9022178,52.3976103 46.386442,53.3863768 48.0910083,53.3863768 C49.7436425,53.3863768 51.1891561,52.456941 51.9776641,51.06959" id="Path" stroke="#6C707C" stroke-width="0.734999975"></path>
                        <rect id="Rectangle" fill="#EDEDED" fill-rule="nonzero" x="5.88426386" y="90.6099056" width="50.9969534" height="5.87739928" rx="0.489999983"></rect>
                        <rect id="Rectangle" fill="#EDEDED" fill-rule="nonzero" x="5.88426386" y="100.405571" width="21.5756342" height="5.87739928" rx="0.489999983"></rect>
                        <rect id="Rectangle" fill="#EDEDED" fill-rule="nonzero" x="5.88426386" y="114.119503" width="83.3604047" height="5.87739928" rx="0.489999983"></rect>
                        <rect id="Rectangle" fill="#EDEDED" fill-rule="nonzero" x="5.88426386" y="123.915168" width="83.3604047" height="5.87739928" rx="0.489999983"></rect>
                        <rect id="Rectangle" fill="#EDEDED" fill-rule="nonzero" x="5.88426386" y="141.547366" width="10.7878171" height="5.87739928" rx="0.489999983"></rect>
                        <rect id="Rectangle" fill="#EDEDED" fill-rule="nonzero" x="20.5949235" y="141.547366" width="10.7878171" height="5.87739928" rx="0.489999983"></rect>
                        <rect id="Rectangle" fill="#EDEDED" fill-rule="nonzero" x="35.3055832" y="141.547366" width="10.7878171" height="5.87739928" rx="0.489999983"></rect>
                    </g>
                </g>
                <g id="card" transform="translate(81.799999, 0.000000)">
                    <rect id="Rectangle" stroke="#6C707C" stroke-width="0.979999967" fill="#FFFFFF" fill-rule="nonzero" x="0.489999983" y="0.489999983" width="95.6199984" height="157.219997" rx="4.89999983"></rect>
                    <path d="M86.7957346,6.12739928 C87.8091771,6.12739928 88.7266771,6.53817801 89.3908164,7.20231735 C90.0549558,7.8664567 90.4657345,8.78395667 90.4657345,9.79739915 L90.4657345,9.79739915 L90.4657345,82.5233732 L6.13426386,82.5233732 L6.13426386,9.79739915 C6.13426386,8.78395667 6.54504259,7.8664567 7.20918193,7.20231735 C7.87332128,6.53817801 8.79082125,6.12739928 9.80426373,6.12739928 L9.80426373,6.12739928 Z" id="Rectangle" stroke="#EDEDED" stroke-width="0.5" fill="#FFFFFF" fill-rule="nonzero"></path>
                    <ellipse id="Oval" fill="#6C707C" fill-rule="nonzero" cx="35.3055832" cy="43.3458197" rx="1.96142129" ry="2.693808"></ellipse>
                    <ellipse id="Oval" fill="#6C707C" fill-rule="nonzero" cx="59.8233492" cy="43.3458197" rx="1.96142129" ry="2.693808"></ellipse>
                    <path d="M31.8730959,37.4589703 C32.3523319,37.6233245 32.8721691,37.7133121 33.4152973,37.7133121 C35.8133522,37.7133121 37.7573598,35.9590445 37.7573598,33.7950459" id="Path" stroke="#6C707C" stroke-width="0.734999975"></path>
                    <path d="M58.3522833,34.7746124 C58.3522833,36.6681112 60.372441,38.2030953 62.8644319,38.2030953 C63.5285325,38.2030953 64.159124,38.0940822 64.7269025,37.898322" id="Path" stroke="#6C707C" stroke-width="0.734999975"></path>
                    <path d="M44.1319789,50.9374604 C44.9022178,52.3976103 46.386442,53.3863768 48.0910083,53.3863768 C49.7436425,53.3863768 51.1891561,52.456941 51.9776641,51.06959" id="Path" stroke="#6C707C" stroke-width="0.734999975"></path>
                    <rect id="Rectangle" fill="#EDEDED" fill-rule="nonzero" x="5.88426386" y="90.6099056" width="50.9969534" height="5.87739928" rx="0.489999983"></rect>
                    <rect id="Rectangle" fill="#EDEDED" fill-rule="nonzero" x="5.88426386" y="100.405571" width="21.5756342" height="5.87739928" rx="0.489999983"></rect>
                    <rect id="Rectangle" fill="#EDEDED" fill-rule="nonzero" x="5.88426386" y="114.119503" width="83.3604047" height="5.87739928" rx="0.489999983"></rect>
                    <rect id="Rectangle" fill="#EDEDED" fill-rule="nonzero" x="5.88426386" y="123.915168" width="83.3604047" height="5.87739928" rx="0.489999983"></rect>
                    <rect id="Rectangle" fill="#EDEDED" fill-rule="nonzero" x="5.88426386" y="141.547366" width="10.7878171" height="5.87739928" rx="0.489999983"></rect>
                    <rect id="Rectangle" fill="#EDEDED" fill-rule="nonzero" x="20.5949235" y="141.547366" width="10.7878171" height="5.87739928" rx="0.489999983"></rect>
                    <rect id="Rectangle" fill="#EDEDED" fill-rule="nonzero" x="35.3055832" y="141.547366" width="10.7878171" height="5.87739928" rx="0.489999983"></rect>
                </g>
                <line x1="15.5" y1="29.5" x2="9.5" y2="23.5" id="Path" stroke="#6C707C" stroke-width="2" stroke-linecap="round" stroke-linejoin="round"></line>
                <line x1="10.5" y1="40.5" x2="1.5" y2="40.5" id="Path" stroke="#6C707C" stroke-width="2" stroke-linecap="round" stroke-linejoin="round"></line>
                <line x1="26.5" y1="25.5" x2="26.5" y2="16.5" id="Path-3" stroke="#6C707C" stroke-width="2" stroke-linecap="round" stroke-linejoin="round"></line>
            </g>
        </g>
    </g>
</svg>